# xmcd CD database file
#
# Track frame offsets:
#	150
#	14352
#	35430
#	52287
#	64262
#
# Disc length: 1074 seconds
#
# Revision: 0
# Processed by: cddbd v1.5.2PL0 Copyright (c) Steve Scherf et al.
# Submitted via: CDex 1.51
#
DISCID=43043005
DTITLE=Big Chill - Big Chill
DYEAR=2008
DGENRE=Jazz
TTITLE0=Happy
TTITLE1=Freedom
TTITLE2=Rat Pack
TTITLE3=Run Away
TTITLE4=Cold and Gray
EXTD=YEAR: 2008
EXTT0=
EXTT1=
EXTT2=
EXTT3=
EXTT4=
PLAYORDER=
